<svg width="1280" height="500" viewBox="0 0 1280 500" fill="none" xmlns="http://www.w3.org/2000/svg">
<path d="M431.568 301C430.373 301 429.435 300.701 428.752 300.104C428.069 299.507 427.728 298.739 427.728 297.8V210.632C427.728 209.693 428.069 208.925 428.752 208.328C429.435 207.731 430.373 207.432 431.568 207.432H454.224C459.259 207.432 463.781 208.328 467.792 210.12C471.888 211.912 475.088 214.813 477.392 218.824C479.781 222.835 480.976 228.168 480.976 234.824V273.608C480.976 280.264 479.781 285.597 477.392 289.608C475.088 293.619 471.888 296.52 467.792 298.312C463.781 300.104 459.259 301 454.224 301H431.568ZM436.176 293.192H454.224C459.941 293.192 464.421 291.613 467.664 288.456C470.907 285.299 472.528 280.349 472.528 273.608V234.824C472.528 228.083 470.907 223.133 467.664 219.976C464.421 216.819 459.941 215.24 454.224 215.24H436.176V293.192ZM519.577 301.896C515.225 301.896 511.214 300.787 507.545 298.568C503.876 296.264 500.889 293.277 498.585 289.608C496.366 285.853 495.257 281.843 495.257 277.576V263.752C495.257 259.4 496.324 255.432 498.457 251.848C500.676 248.179 503.62 245.235 507.289 243.016C511.044 240.797 515.14 239.688 519.577 239.688C523.929 239.688 527.94 240.797 531.609 243.016C535.364 245.149 538.35 248.008 540.569 251.592C542.788 255.176 543.897 259.229 543.897 263.752V277.576C543.897 281.757 542.788 285.725 540.569 289.48C538.35 293.235 535.364 296.264 531.609 298.568C527.94 300.787 523.929 301.896 519.577 301.896ZM519.577 294.216C522.564 294.216 525.252 293.448 527.641 291.912C530.03 290.291 531.95 288.2 533.401 285.64C534.852 283.08 535.577 280.392 535.577 277.576V263.752C535.577 260.936 534.852 258.291 533.401 255.816C532.036 253.341 530.116 251.336 527.641 249.8C525.252 248.179 522.564 247.368 519.577 247.368C516.59 247.368 513.902 248.179 511.513 249.8C509.124 251.336 507.204 253.341 505.753 255.816C504.302 258.291 503.577 260.936 503.577 263.752V277.576C503.577 280.392 504.302 283.08 505.753 285.64C507.204 288.2 509.124 290.291 511.513 291.912C513.988 293.448 516.676 294.216 519.577 294.216ZM580.345 301.896C574.713 301.896 570.062 300.829 566.393 298.696C562.724 296.563 559.993 293.661 558.201 289.992C556.409 286.323 555.513 282.184 555.513 277.576V264.008C555.513 259.4 556.366 255.261 558.073 251.592C559.865 247.923 562.596 245.021 566.265 242.888C570.02 240.755 574.713 239.688 580.345 239.688C583.929 239.688 587.044 240.157 589.689 241.096C592.42 241.949 594.51 243.016 595.961 244.296C597.497 245.576 598.265 246.813 598.265 248.008C598.265 248.605 598.094 249.245 597.753 249.928C597.497 250.525 597.07 251.037 596.473 251.464C595.961 251.891 595.364 252.104 594.681 252.104C593.913 252.104 593.017 251.72 591.993 250.952C591.054 250.099 589.732 249.288 588.025 248.52C586.318 247.752 583.886 247.368 580.729 247.368C575.182 247.368 570.958 248.861 568.057 251.848C565.241 254.749 563.833 258.803 563.833 264.008V277.576C563.833 282.781 565.241 286.877 568.057 289.864C570.958 292.765 575.225 294.216 580.857 294.216C584.1 294.216 586.617 293.832 588.409 293.064C590.201 292.211 591.566 291.4 592.505 290.632C593.529 289.779 594.468 289.352 595.321 289.352C596.089 289.352 596.729 289.565 597.241 289.992C597.838 290.419 598.265 290.931 598.521 291.528C598.862 292.125 599.033 292.765 599.033 293.448C599.033 294.557 598.265 295.795 596.729 297.16C595.193 298.44 593.017 299.549 590.201 300.488C587.47 301.427 584.185 301.896 580.345 301.896ZM634.247 301.896C629.724 301.896 625.586 300.787 621.831 298.568C618.162 296.349 615.218 293.405 612.999 289.736C610.866 285.981 609.799 282.013 609.799 277.832V243.784C609.799 242.931 610.226 242.163 611.079 241.48C611.932 240.797 612.914 240.456 614.023 240.456C615.132 240.456 616.071 240.797 616.839 241.48C617.692 242.163 618.119 242.931 618.119 243.784V277.832C618.119 280.648 618.844 283.293 620.295 285.768C621.746 288.243 623.666 290.291 626.055 291.912C628.444 293.448 631.132 294.216 634.119 294.216C637.191 294.216 639.922 293.448 642.311 291.912C644.7 290.376 646.578 288.371 647.943 285.896C649.394 283.336 650.119 280.648 650.119 277.832V243.656C650.119 242.717 650.546 241.949 651.399 241.352C652.252 240.755 653.234 240.456 654.343 240.456C655.623 240.456 656.604 240.755 657.287 241.352C658.055 241.949 658.439 242.717 658.439 243.656V277.832C658.439 282.184 657.33 286.195 655.111 289.864C652.978 293.448 650.034 296.349 646.279 298.568C642.61 300.787 638.599 301.896 634.247 301.896ZM729.285 222.536C727.749 222.536 726.384 222.024 725.189 221C724.08 219.891 723.525 218.611 723.525 217.16C723.525 215.709 724.08 214.472 725.189 213.448C726.384 212.424 727.749 211.912 729.285 211.912C730.821 211.912 732.144 212.424 733.253 213.448C734.362 214.472 734.917 215.709 734.917 217.16C734.917 218.611 734.362 219.891 733.253 221C732.144 222.024 730.821 222.536 729.285 222.536ZM729.157 301C728.048 301 727.066 300.659 726.213 299.976C725.445 299.293 725.061 298.525 725.061 297.672V243.656C725.061 242.632 725.445 241.864 726.213 241.352C727.066 240.755 728.048 240.456 729.157 240.456C730.352 240.456 731.333 240.755 732.101 241.352C732.954 241.864 733.381 242.632 733.381 243.656V297.672C733.381 298.525 732.954 299.293 732.101 299.976C731.333 300.659 730.352 301 729.157 301ZM769.663 301.896C765.738 301.896 762.026 300.787 758.527 298.568C755.028 296.264 752.212 293.235 750.079 289.48C748.031 285.725 747.007 281.757 747.007 277.576V263.752C747.007 259.315 748.031 255.304 750.079 251.72C752.212 248.051 755.028 245.149 758.527 243.016C762.026 240.797 765.866 239.688 770.047 239.688C774.228 239.688 777.727 240.712 780.543 242.76C783.444 244.723 785.578 246.941 786.943 249.416V206.536C786.943 205.512 787.37 204.744 788.223 204.232C789.076 203.635 790.058 203.336 791.167 203.336C792.447 203.336 793.428 203.635 794.111 204.232C794.879 204.744 795.263 205.512 795.263 206.536V297.672C795.263 298.525 794.879 299.293 794.111 299.976C793.428 300.659 792.447 301 791.167 301C790.143 301 789.204 300.659 788.351 299.976C787.583 299.293 787.199 298.525 787.199 297.672V292.04C785.919 294.685 783.658 296.989 780.415 298.952C777.258 300.915 773.674 301.896 769.663 301.896ZM771.199 294.216C774.271 294.216 776.959 293.448 779.263 291.912C781.652 290.291 783.53 288.499 784.895 286.536C786.26 284.488 786.943 282.824 786.943 281.544V263.752C786.943 260.253 786.175 257.309 784.639 254.92C783.103 252.531 781.14 250.696 778.751 249.416C776.362 248.051 773.887 247.368 771.327 247.368C768.426 247.368 765.78 248.179 763.391 249.8C761.002 251.336 759.082 253.341 757.631 255.816C756.18 258.291 755.455 260.936 755.455 263.752V277.576C755.455 280.392 756.18 283.08 757.631 285.64C759.082 288.2 761.002 290.291 763.391 291.912C765.78 293.448 768.383 294.216 771.199 294.216ZM836.655 301.896C831.279 301.896 826.5 300.872 822.319 298.824C818.223 296.776 814.98 293.96 812.591 290.376C810.287 286.707 809.135 282.44 809.135 277.576V263.368C809.135 259.101 810.244 255.176 812.463 251.592C814.682 247.923 817.626 245.021 821.295 242.888C825.05 240.755 829.146 239.688 833.583 239.688C837.85 239.688 841.775 240.712 845.359 242.76C849.028 244.723 851.972 247.453 854.191 250.952C856.41 254.451 857.519 258.504 857.519 263.112C857.519 266.355 856.964 268.701 855.855 270.152C854.746 271.603 853.338 272.499 851.631 272.84C850.01 273.096 848.26 273.224 846.383 273.224H817.455V277.96C817.455 283.08 819.29 287.133 822.959 290.12C826.628 293.107 831.279 294.6 836.911 294.6C840.324 294.6 842.97 294.173 844.847 293.32C846.724 292.467 848.175 291.613 849.199 290.76C850.308 289.907 851.332 289.48 852.271 289.48C852.954 289.48 853.551 289.736 854.063 290.248C854.66 290.675 855.087 291.187 855.343 291.784C855.684 292.381 855.855 292.936 855.855 293.448C855.855 294.387 855.087 295.539 853.551 296.904C852.015 298.269 849.796 299.464 846.895 300.488C843.994 301.427 840.58 301.896 836.655 301.896ZM817.455 267.08H843.055C845.615 267.08 847.322 266.824 848.175 266.312C849.028 265.715 849.455 264.52 849.455 262.728C849.455 259.997 848.772 257.437 847.407 255.048C846.042 252.573 844.164 250.568 841.775 249.032C839.386 247.411 836.612 246.6 833.455 246.6C830.554 246.6 827.866 247.325 825.391 248.776C823.002 250.227 821.082 252.104 819.631 254.408C818.18 256.712 817.455 259.315 817.455 262.216V267.08Z" fill="white"/>
<path d="M686.592 301C685.483 301 684.501 300.744 683.648 300.232C682.795 299.635 682.368 298.781 682.368 297.672V215.368H660.864C659.84 215.368 659.029 214.984 658.432 214.216C657.835 213.363 657.536 212.424 657.536 211.4C657.536 210.376 657.835 209.48 658.432 208.712C659.029 207.859 659.84 207.432 660.864 207.432H712.192C713.301 207.432 714.112 207.859 714.624 208.712C715.136 209.48 715.392 210.333 715.392 211.272C715.392 212.296 715.136 213.235 714.624 214.088C714.112 214.941 713.301 215.368 712.192 215.368H690.816V297.672C690.816 298.781 690.347 299.635 689.408 300.232C688.555 300.744 687.616 301 686.592 301Z" fill="#7DCBFF"/>
<circle cx="634" cy="276" r="10" fill="#65B0E1"/>
<circle cx="636" cy="244" r="8" fill="#6EB1E6"/>
<circle cx="647.5" cy="220.5" r="5.5" fill="#76B7EB"/>
<circle cx="729" cy="217" r="6" fill="#76B7EB"/>
<ellipse cx="520" cy="271" rx="10" ry="15" fill="#65B0E1"/>
</svg>
