<svg width="1280" height="500" viewBox="0 0 1280 500" fill="none" xmlns="http://www.w3.org/2000/svg">
<path d="M150.8 368C148 368 145.8 367.3 144.2 365.9C142.6 364.5 141.8 362.7 141.8 360.5V156.2C141.8 154 142.6 152.2 144.2 150.8C145.8 149.4 148 148.7 150.8 148.7H203.9C215.7 148.7 226.3 150.8 235.7 155C245.3 159.2 252.8 166 258.2 175.4C263.8 184.8 266.6 197.3 266.6 212.9V303.8C266.6 319.4 263.8 331.9 258.2 341.3C252.8 350.7 245.3 357.5 235.7 361.7C226.3 365.9 215.7 368 203.9 368H150.8ZM161.6 349.7H203.9C217.3 349.7 227.8 346 235.4 338.6C243 331.2 246.8 319.6 246.8 303.8V212.9C246.8 197.1 243 185.5 235.4 178.1C227.8 170.7 217.3 167 203.9 167H161.6V349.7ZM357.071 370.1C346.871 370.1 337.471 367.5 328.871 362.3C320.271 356.9 313.271 349.9 307.871 341.3C302.671 332.5 300.071 323.1 300.071 313.1V280.7C300.071 270.5 302.571 261.2 307.571 252.8C312.771 244.2 319.671 237.3 328.271 232.1C337.071 226.9 346.671 224.3 357.071 224.3C367.271 224.3 376.671 226.9 385.271 232.1C394.071 237.1 401.071 243.8 406.271 252.2C411.471 260.6 414.071 270.1 414.071 280.7V313.1C414.071 322.9 411.471 332.2 406.271 341C401.071 349.8 394.071 356.9 385.271 362.3C376.671 367.5 367.271 370.1 357.071 370.1ZM357.071 352.1C364.071 352.1 370.371 350.3 375.971 346.7C381.571 342.9 386.071 338 389.471 332C392.871 326 394.571 319.7 394.571 313.1V280.7C394.571 274.1 392.871 267.9 389.471 262.1C386.271 256.3 381.771 251.6 375.971 248C370.371 244.2 364.071 242.3 357.071 242.3C350.071 242.3 343.771 244.2 338.171 248C332.571 251.6 328.071 256.3 324.671 262.1C321.271 267.9 319.571 274.1 319.571 280.7V313.1C319.571 319.7 321.271 326 324.671 332C328.071 338 332.571 342.9 338.171 346.7C343.971 350.3 350.271 352.1 357.071 352.1ZM499.496 370.1C486.296 370.1 475.396 367.6 466.796 362.6C458.196 357.6 451.796 350.8 447.596 342.2C443.396 333.6 441.296 323.9 441.296 313.1V281.3C441.296 270.5 443.296 260.8 447.296 252.2C451.496 243.6 457.896 236.8 466.496 231.8C475.296 226.8 486.296 224.3 499.496 224.3C507.896 224.3 515.196 225.4 521.396 227.6C527.796 229.6 532.696 232.1 536.096 235.1C539.696 238.1 541.496 241 541.496 243.8C541.496 245.2 541.096 246.7 540.296 248.3C539.696 249.7 538.696 250.9 537.296 251.9C536.096 252.9 534.696 253.4 533.096 253.4C531.296 253.4 529.196 252.5 526.796 250.7C524.596 248.7 521.496 246.8 517.496 245C513.496 243.2 507.796 242.3 500.396 242.3C487.396 242.3 477.496 245.8 470.696 252.8C464.096 259.6 460.796 269.1 460.796 281.3V313.1C460.796 325.3 464.096 334.9 470.696 341.9C477.496 348.7 487.496 352.1 500.696 352.1C508.296 352.1 514.196 351.2 518.396 349.4C522.596 347.4 525.796 345.5 527.996 343.7C530.396 341.7 532.596 340.7 534.596 340.7C536.396 340.7 537.896 341.2 539.096 342.2C540.496 343.2 541.496 344.4 542.096 345.8C542.896 347.2 543.296 348.7 543.296 350.3C543.296 352.9 541.496 355.8 537.896 359C534.296 362 529.196 364.6 522.596 366.8C516.196 369 508.496 370.1 499.496 370.1ZM625.829 370.1C615.229 370.1 605.529 367.5 596.729 362.3C588.129 357.1 581.229 350.2 576.029 341.6C571.029 332.8 568.529 323.5 568.529 313.7V233.9C568.529 231.9 569.529 230.1 571.529 228.5C573.529 226.9 575.829 226.1 578.429 226.1C581.029 226.1 583.229 226.9 585.029 228.5C587.029 230.1 588.029 231.9 588.029 233.9V313.7C588.029 320.3 589.729 326.5 593.129 332.3C596.529 338.1 601.029 342.9 606.629 346.7C612.229 350.3 618.529 352.1 625.529 352.1C632.729 352.1 639.129 350.3 644.729 346.7C650.329 343.1 654.729 338.4 657.929 332.6C661.329 326.6 663.029 320.3 663.029 313.7V233.6C663.029 231.4 664.029 229.6 666.029 228.2C668.029 226.8 670.329 226.1 672.929 226.1C675.929 226.1 678.229 226.8 679.829 228.2C681.629 229.6 682.529 231.4 682.529 233.6V313.7C682.529 323.9 679.929 333.3 674.729 341.9C669.729 350.3 662.829 357.1 654.029 362.3C645.429 367.5 636.029 370.1 625.829 370.1ZM848.574 184.1C844.974 184.1 841.774 182.9 838.974 180.5C836.374 177.9 835.074 174.9 835.074 171.5C835.074 168.1 836.374 165.2 838.974 162.8C841.774 160.4 844.974 159.2 848.574 159.2C852.174 159.2 855.274 160.4 857.874 162.8C860.474 165.2 861.774 168.1 861.774 171.5C861.774 174.9 860.474 177.9 857.874 180.5C855.274 182.9 852.174 184.1 848.574 184.1ZM848.274 368C845.674 368 843.374 367.2 841.374 365.6C839.574 364 838.674 362.2 838.674 360.2V233.6C838.674 231.2 839.574 229.4 841.374 228.2C843.374 226.8 845.674 226.1 848.274 226.1C851.074 226.1 853.374 226.8 855.174 228.2C857.174 229.4 858.174 231.2 858.174 233.6V360.2C858.174 362.2 857.174 364 855.174 365.6C853.374 367.2 851.074 368 848.274 368ZM943.21 370.1C934.01 370.1 925.31 367.5 917.11 362.3C908.91 356.9 902.31 349.8 897.31 341C892.51 332.2 890.11 322.9 890.11 313.1V280.7C890.11 270.3 892.51 260.9 897.31 252.5C902.31 243.9 908.91 237.1 917.11 232.1C925.31 226.9 934.31 224.3 944.11 224.3C953.91 224.3 962.11 226.7 968.71 231.5C975.51 236.1 980.51 241.3 983.71 247.1V146.6C983.71 144.2 984.71 142.4 986.71 141.2C988.71 139.8 991.01 139.1 993.61 139.1C996.61 139.1 998.91 139.8 1000.51 141.2C1002.31 142.4 1003.21 144.2 1003.21 146.6V360.2C1003.21 362.2 1002.31 364 1000.51 365.6C998.91 367.2 996.61 368 993.61 368C991.21 368 989.01 367.2 987.01 365.6C985.21 364 984.31 362.2 984.31 360.2V347C981.31 353.2 976.01 358.6 968.41 363.2C961.01 367.8 952.61 370.1 943.21 370.1ZM946.81 352.1C954.01 352.1 960.31 350.3 965.71 346.7C971.31 342.9 975.71 338.7 978.91 334.1C982.11 329.3 983.71 325.4 983.71 322.4V280.7C983.71 272.5 981.91 265.6 978.31 260C974.71 254.4 970.11 250.1 964.51 247.1C958.91 243.9 953.11 242.3 947.11 242.3C940.31 242.3 934.11 244.2 928.51 248C922.91 251.6 918.41 256.3 915.01 262.1C911.61 267.9 909.91 274.1 909.91 280.7V313.1C909.91 319.7 911.61 326 915.01 332C918.41 338 922.91 342.9 928.51 346.7C934.11 350.3 940.21 352.1 946.81 352.1ZM1100.22 370.1C1087.62 370.1 1076.42 367.7 1066.62 362.9C1057.02 358.1 1049.42 351.5 1043.82 343.1C1038.42 334.5 1035.72 324.5 1035.72 313.1V279.8C1035.72 269.8 1038.32 260.6 1043.52 252.2C1048.72 243.6 1055.62 236.8 1064.22 231.8C1073.02 226.8 1082.62 224.3 1093.02 224.3C1103.02 224.3 1112.22 226.7 1120.62 231.5C1129.22 236.1 1136.12 242.5 1141.32 250.7C1146.52 258.9 1149.12 268.4 1149.12 279.2C1149.12 286.8 1147.82 292.3 1145.22 295.7C1142.62 299.1 1139.32 301.2 1135.32 302C1131.52 302.6 1127.42 302.9 1123.02 302.9H1055.22V314C1055.22 326 1059.52 335.5 1068.12 342.5C1076.72 349.5 1087.62 353 1100.82 353C1108.82 353 1115.02 352 1119.42 350C1123.82 348 1127.22 346 1129.62 344C1132.22 342 1134.62 341 1136.82 341C1138.42 341 1139.82 341.6 1141.02 342.8C1142.42 343.8 1143.42 345 1144.02 346.4C1144.82 347.8 1145.22 349.1 1145.22 350.3C1145.22 352.5 1143.42 355.2 1139.82 358.4C1136.22 361.6 1131.02 364.4 1124.22 366.8C1117.42 369 1109.42 370.1 1100.22 370.1ZM1055.22 288.5H1115.22C1121.22 288.5 1125.22 287.9 1127.22 286.7C1129.22 285.3 1130.22 282.5 1130.22 278.3C1130.22 271.9 1128.62 265.9 1125.42 260.3C1122.22 254.5 1117.82 249.8 1112.22 246.2C1106.62 242.4 1100.12 240.5 1092.72 240.5C1085.92 240.5 1079.62 242.2 1073.82 245.6C1068.22 249 1063.72 253.4 1060.32 258.8C1056.92 264.2 1055.22 270.3 1055.22 277.1V288.5Z" fill="white"/>
<path d="M754.7 368C752.1 368 749.8 367.4 747.8 366.2C745.8 364.8 744.8 362.8 744.8 360.2V167.3H694.4C692 167.3 690.1 166.4 688.7 164.6C687.3 162.6 686.6 160.4 686.6 158C686.6 155.6 687.3 153.5 688.7 151.7C690.1 149.7 692 148.7 694.4 148.7H814.7C817.3 148.7 819.2 149.7 820.4 151.7C821.6 153.5 822.2 155.5 822.2 157.7C822.2 160.1 821.6 162.3 820.4 164.3C819.2 166.3 817.3 167.3 814.7 167.3H764.6V360.2C764.6 362.8 763.5 364.8 761.3 366.2C759.3 367.4 757.1 368 754.7 368Z" fill="#6A5ACD"/>
<circle cx="625.5" cy="312.5" r="24.5" fill="#6A5ACD"/>
<circle cx="632" cy="240" r="20" fill="#6A5ACD"/>
<circle cx="660.5" cy="185.5" r="13.5" fill="#6A5ACD"/>
<circle cx="848.5" cy="171.5" r="13.5" fill="#6A5ACD"/>
<ellipse cx="357" cy="297" rx="20" ry="35" fill="#6A5ACD"/>
</svg>
