<svg width="1280" height="500" viewBox="0 0 1280 500" fill="none" xmlns="http://www.w3.org/2000/svg">
<path d="M138.8 333C136 333 133.8 332.3 132.2 330.9C130.6 329.5 129.8 327.7 129.8 325.5V121.2C129.8 119 130.6 117.2 132.2 115.8C133.8 114.4 136 113.7 138.8 113.7H191.9C203.7 113.7 214.3 115.8 223.7 120C233.3 124.2 240.8 131 246.2 140.4C251.8 149.8 254.6 162.3 254.6 177.9V268.8C254.6 284.4 251.8 296.9 246.2 306.3C240.8 315.7 233.3 322.5 223.7 326.7C214.3 330.9 203.7 333 191.9 333H138.8ZM149.6 314.7H191.9C205.3 314.7 215.8 311 223.4 303.6C231 296.2 234.8 284.6 234.8 268.8V177.9C234.8 162.1 231 150.5 223.4 143.1C215.8 135.7 205.3 132 191.9 132H149.6V314.7ZM345.071 335.1C334.871 335.1 325.471 332.5 316.871 327.3C308.271 321.9 301.271 314.9 295.871 306.3C290.671 297.5 288.071 288.1 288.071 278.1V245.7C288.071 235.5 290.571 226.2 295.571 217.8C300.771 209.2 307.671 202.3 316.271 197.1C325.071 191.9 334.671 189.3 345.071 189.3C355.271 189.3 364.671 191.9 373.271 197.1C382.071 202.1 389.071 208.8 394.271 217.2C399.471 225.6 402.071 235.1 402.071 245.7V278.1C402.071 287.9 399.471 297.2 394.271 306C389.071 314.8 382.071 321.9 373.271 327.3C364.671 332.5 355.271 335.1 345.071 335.1ZM345.071 317.1C352.071 317.1 358.371 315.3 363.971 311.7C369.571 307.9 374.071 303 377.471 297C380.871 291 382.571 284.7 382.571 278.1V245.7C382.571 239.1 380.871 232.9 377.471 227.1C374.271 221.3 369.771 216.6 363.971 213C358.371 209.2 352.071 207.3 345.071 207.3C338.071 207.3 331.771 209.2 326.171 213C320.571 216.6 316.071 221.3 312.671 227.1C309.271 232.9 307.571 239.1 307.571 245.7V278.1C307.571 284.7 309.271 291 312.671 297C316.071 303 320.571 307.9 326.171 311.7C331.971 315.3 338.271 317.1 345.071 317.1ZM487.496 335.1C474.296 335.1 463.396 332.6 454.796 327.6C446.196 322.6 439.796 315.8 435.596 307.2C431.396 298.6 429.296 288.9 429.296 278.1V246.3C429.296 235.5 431.296 225.8 435.296 217.2C439.496 208.6 445.896 201.8 454.496 196.8C463.296 191.8 474.296 189.3 487.496 189.3C495.896 189.3 503.196 190.4 509.396 192.6C515.796 194.6 520.696 197.1 524.096 200.1C527.696 203.1 529.496 206 529.496 208.8C529.496 210.2 529.096 211.7 528.296 213.3C527.696 214.7 526.696 215.9 525.296 216.9C524.096 217.9 522.696 218.4 521.096 218.4C519.296 218.4 517.196 217.5 514.796 215.7C512.596 213.7 509.496 211.8 505.496 210C501.496 208.2 495.796 207.3 488.396 207.3C475.396 207.3 465.496 210.8 458.696 217.8C452.096 224.6 448.796 234.1 448.796 246.3V278.1C448.796 290.3 452.096 299.9 458.696 306.9C465.496 313.7 475.496 317.1 488.696 317.1C496.296 317.1 502.196 316.2 506.396 314.4C510.596 312.4 513.796 310.5 515.996 308.7C518.396 306.7 520.596 305.7 522.596 305.7C524.396 305.7 525.896 306.2 527.096 307.2C528.496 308.2 529.496 309.4 530.096 310.8C530.896 312.2 531.296 313.7 531.296 315.3C531.296 317.9 529.496 320.8 525.896 324C522.296 327 517.196 329.6 510.596 331.8C504.196 334 496.496 335.1 487.496 335.1ZM613.829 335.1C603.229 335.1 593.529 332.5 584.729 327.3C576.129 322.1 569.229 315.2 564.029 306.6C559.029 297.8 556.529 288.5 556.529 278.7V198.9C556.529 196.9 557.529 195.1 559.529 193.5C561.529 191.9 563.829 191.1 566.429 191.1C569.029 191.1 571.229 191.9 573.029 193.5C575.029 195.1 576.029 196.9 576.029 198.9V278.7C576.029 285.3 577.729 291.5 581.129 297.3C584.529 303.1 589.029 307.9 594.629 311.7C600.229 315.3 606.529 317.1 613.529 317.1C620.729 317.1 627.129 315.3 632.729 311.7C638.329 308.1 642.729 303.4 645.929 297.6C649.329 291.6 651.029 285.3 651.029 278.7V198.6C651.029 196.4 652.029 194.6 654.029 193.2C656.029 191.8 658.329 191.1 660.929 191.1C663.929 191.1 666.229 191.8 667.829 193.2C669.629 194.6 670.529 196.4 670.529 198.6V278.7C670.529 288.9 667.929 298.3 662.729 306.9C657.729 315.3 650.829 322.1 642.029 327.3C633.429 332.5 624.029 335.1 613.829 335.1ZM836.574 149.1C832.974 149.1 829.774 147.9 826.974 145.5C824.374 142.9 823.074 139.9 823.074 136.5C823.074 133.1 824.374 130.2 826.974 127.8C829.774 125.4 832.974 124.2 836.574 124.2C840.174 124.2 843.274 125.4 845.874 127.8C848.474 130.2 849.774 133.1 849.774 136.5C849.774 139.9 848.474 142.9 845.874 145.5C843.274 147.9 840.174 149.1 836.574 149.1ZM836.274 333C833.674 333 831.374 332.2 829.374 330.6C827.574 329 826.674 327.2 826.674 325.2V198.6C826.674 196.2 827.574 194.4 829.374 193.2C831.374 191.8 833.674 191.1 836.274 191.1C839.074 191.1 841.374 191.8 843.174 193.2C845.174 194.4 846.174 196.2 846.174 198.6V325.2C846.174 327.2 845.174 329 843.174 330.6C841.374 332.2 839.074 333 836.274 333ZM931.21 335.1C922.01 335.1 913.31 332.5 905.11 327.3C896.91 321.9 890.31 314.8 885.31 306C880.51 297.2 878.11 287.9 878.11 278.1V245.7C878.11 235.3 880.51 225.9 885.31 217.5C890.31 208.9 896.91 202.1 905.11 197.1C913.31 191.9 922.31 189.3 932.11 189.3C941.91 189.3 950.11 191.7 956.71 196.5C963.51 201.1 968.51 206.3 971.71 212.1V111.6C971.71 109.2 972.71 107.4 974.71 106.2C976.71 104.8 979.01 104.1 981.61 104.1C984.61 104.1 986.91 104.8 988.51 106.2C990.31 107.4 991.21 109.2 991.21 111.6V325.2C991.21 327.2 990.31 329 988.51 330.6C986.91 332.2 984.61 333 981.61 333C979.21 333 977.01 332.2 975.01 330.6C973.21 329 972.31 327.2 972.31 325.2V312C969.31 318.2 964.01 323.6 956.41 328.2C949.01 332.8 940.61 335.1 931.21 335.1ZM934.81 317.1C942.01 317.1 948.31 315.3 953.71 311.7C959.31 307.9 963.71 303.7 966.91 299.1C970.11 294.3 971.71 290.4 971.71 287.4V245.7C971.71 237.5 969.91 230.6 966.31 225C962.71 219.4 958.11 215.1 952.51 212.1C946.91 208.9 941.11 207.3 935.11 207.3C928.31 207.3 922.11 209.2 916.51 213C910.91 216.6 906.41 221.3 903.01 227.1C899.61 232.9 897.91 239.1 897.91 245.7V278.1C897.91 284.7 899.61 291 903.01 297C906.41 303 910.91 307.9 916.51 311.7C922.11 315.3 928.21 317.1 934.81 317.1ZM1088.22 335.1C1075.62 335.1 1064.42 332.7 1054.62 327.9C1045.02 323.1 1037.42 316.5 1031.82 308.1C1026.42 299.5 1023.72 289.5 1023.72 278.1V244.8C1023.72 234.8 1026.32 225.6 1031.52 217.2C1036.72 208.6 1043.62 201.8 1052.22 196.8C1061.02 191.8 1070.62 189.3 1081.02 189.3C1091.02 189.3 1100.22 191.7 1108.62 196.5C1117.22 201.1 1124.12 207.5 1129.32 215.7C1134.52 223.9 1137.12 233.4 1137.12 244.2C1137.12 251.8 1135.82 257.3 1133.22 260.7C1130.62 264.1 1127.32 266.2 1123.32 267C1119.52 267.6 1115.42 267.9 1111.02 267.9H1043.22V279C1043.22 291 1047.52 300.5 1056.12 307.5C1064.72 314.5 1075.62 318 1088.82 318C1096.82 318 1103.02 317 1107.42 315C1111.82 313 1115.22 311 1117.62 309C1120.22 307 1122.62 306 1124.82 306C1126.42 306 1127.82 306.6 1129.02 307.8C1130.42 308.8 1131.42 310 1132.02 311.4C1132.82 312.8 1133.22 314.1 1133.22 315.3C1133.22 317.5 1131.42 320.2 1127.82 323.4C1124.22 326.6 1119.02 329.4 1112.22 331.8C1105.42 334 1097.42 335.1 1088.22 335.1ZM1043.22 253.5H1103.22C1109.22 253.5 1113.22 252.9 1115.22 251.7C1117.22 250.3 1118.22 247.5 1118.22 243.3C1118.22 236.9 1116.62 230.9 1113.42 225.3C1110.22 219.5 1105.82 214.8 1100.22 211.2C1094.62 207.4 1088.12 205.5 1080.72 205.5C1073.92 205.5 1067.62 207.2 1061.82 210.6C1056.22 214 1051.72 218.4 1048.32 223.8C1044.92 229.2 1043.22 235.3 1043.22 242.1V253.5Z" fill="white"/>
<path d="M739.7 333C737.1 333 734.8 332.4 732.8 331.2C730.8 329.8 729.8 327.8 729.8 325.2V132.3H679.4C677 132.3 675.1 131.4 673.7 129.6C672.3 127.6 671.6 125.4 671.6 123C671.6 120.6 672.3 118.5 673.7 116.7C675.1 114.7 677 113.7 679.4 113.7H799.7C802.3 113.7 804.2 114.7 805.4 116.7C806.6 118.5 807.2 120.5 807.2 122.7C807.2 125.1 806.6 127.3 805.4 129.3C804.2 131.3 802.3 132.3 799.7 132.3H749.6V325.2C749.6 327.8 748.5 329.8 746.3 331.2C744.3 332.4 742.1 333 739.7 333Z" fill="#7DCBFF"/>
<circle cx="614" cy="276" r="24" fill="#65B0E1"/>
<circle cx="620" cy="202" r="20" fill="#6EB1E6"/>
<circle cx="643" cy="150" r="15" fill="#76B7EB"/>
<circle cx="837" cy="138" r="15" fill="#76B7EB"/>
<ellipse cx="345.5" cy="262.5" rx="22.5" ry="37.5" fill="#65B0E1"/>
</svg>
